<svg width="698" height="551" viewBox="0 0 698 551" fill="none" xmlns="http://www.w3.org/2000/svg">
<rect width="200" height="550" fill="#9785DF"/>
<path d="M80 0H120V207H80V0Z" fill="#F0F0F0"/>
<path d="M80 343H120V550H80V343Z" fill="#F0F0F0"/>
<path d="M175 275C175 316.421 141.421 350 100 350C58.5786 350 25 316.421 25 275C25 233.579 58.5786 200 100 200C141.421 200 175 233.579 175 275ZM55 275C55 299.853 75.1472 320 100 320C124.853 320 145 299.853 145 275C145 250.147 124.853 230 100 230C75.1472 230 55 250.147 55 275Z" fill="#F0F0F0"/>
<rect x="249" y="1" width="200" height="550" fill="#9785DF"/>
<path d="M329 1H369V208H329V1Z" fill="#F0F0F0"/>
<path d="M329 344H369V551H329V344Z" fill="#F0F0F0"/>
<path d="M424 276C424 317.421 390.421 351 349 351C307.579 351 274 317.421 274 276C274 234.579 307.579 201 349 201C390.421 201 424 234.579 424 276ZM304 276C304 300.853 324.147 321 349 321C373.853 321 394 300.853 394 276C394 251.147 373.853 231 349 231C324.147 231 304 251.147 304 276Z" fill="#F0F0F0"/>
<circle cx="348.5" cy="275.5" r="22.5" fill="#F0F0F0"/>
<rect x="498" width="200" height="550" fill="#9785DF"/>
<path d="M538 343H578V550H538V343Z" fill="#F0F0F0"/>
<path d="M618 343H658V550H618V343Z" fill="#F0F0F0"/>
<path d="M578 0H618V207H578V0Z" fill="#F0F0F0"/>
<path d="M538 343L578.001 207H618.001L658 343H618L597.5 261L578.001 343H538Z" fill="#F0F0F0"/>
</svg>
